<svg xmlns="http://www.w3.org/2000/svg" viewBox="0 0 1600 1000">
    <rect width="1600" height="1000" fill="#F1DCD3"/>
    <g transform="translate(800 560) scale(3.6)" fill="none" stroke="#C86B54" stroke-width="3" stroke-linecap="round" stroke-linejoin="round" opacity="0.55">
    <path d="M0,-60 C-14,-60 -22,-48 -22,-36 C-22,-24 -14,-14 0,-10 C14,-14 22,-24 22,-36 C22,-48 14,-60 0,-60 Z"/>
    <path d="M-22,-10 C-40,10 -46,60 -50,140 C-30,150 0,155 0,155 C0,155 30,150 50,140 C46,60 40,10 22,-10"/>
    <path d="M-22,-10 L-60,70 M22,-10 L60,70"/>
  </g>
  </svg>